<?xml version="1.0" encoding="UTF-8"?>
<svg version="1.1" viewBox="0 0 1600 1364" width="400" height="341" xmlns="http://www.w3.org/2000/svg">
<path transform="translate(377,12)" d="m0 0h1223v947l-10 8-11 7-17 10-13 8-11 7-16 8-21 10-6 3-13 5-20 7-7 3-11 3-20 4-1 1-21 2-3 2-15 1h-42l-13-1-9-2-26-5-29-8-29-10-25-10-16-8-13-7-9-2-32-16-11-6-9-2-10-5-28-9-30-8-41-8-20-2-2-1-12-1h-65l-12 1-2 1-21 2-13 3-9 2-6 2-8 3-12 2-3 2-11 3-40 20-10 6-10 7-8 7-10 6-14 14-1 2h-2l-2 7-10 11-2 5-4 5-4 4h-2l-2 7-4 5-4 4h-2l-2 7-8 9-4 4h-2l-2 7-8 9h-2l-2 4-4 4h-2l-2 7-93 93-5 2-12 11-7 7-5 2-10 9-4 4-6 3-6 5-6 3-10 9-6 3-9 6-10 7-12 6-13 8-19 10-21 10-6 3-13 5-20 7-18 6-16 4-20 4-1 1-23 2h-8v2l-13 1h-32l-7-1-2-2-24-2-6-2-17-3-33-11-19-9-15-8-6-5-6-3-8-7v-2l-7-2-5-5-2-5-11-12-5-8-6-13-5-15-3-8v-42l3-5 1-11 3-7 3-9 3-10 9-17 6-9 6-8h2l5-10 16-17 5-5h2l2-4 9-7 16-12 15-10 11-7 38-19 9-3 24-12 9-6 11-6 9-6 10-7 18-12 10-8 8-6 10-9 8-5 9-9h2l1-3 8-7 6-5 6-4 13-13h2l2-4h2l2-4h2l5-10 11-11 7-8 8-8 3-6 8-9h2l2-4 5-8 7-8 6-10 7-10 6-10 5-9 6-9 11-22 4-9 3-9 5-11 8-24 2-11 2-5 1-13 3-8v-49l-3-5-1-13-10-29-7-14-6-8-3-5-5-7-3-5-9-10-7-7-3-6-11-12-7-8-3-5-9-11-3-5-16-24-5-7-6-12-6-8-21-42-6-16-5-11-3-9-5-12-3-12-5-15-1-12-3-7-1-13-3-6-1-34h-2l-1-2v-36l3-4 1-31 3-5 1-15 3-6 2-12 9-26 5-11 3-9 9-17 3-6 6-9 7-10 4-7z" fill="#CF8181"/>
<path transform="translate(377,12)" d="m0 0h1223v395h-3l-1-2-4-2-2-3-8 1-2 4-4 1-1-3-6 1-1 6-6 1-5-1v2l-5 1-5-1-3 1h-3l-1 2h-5l-2 4-4-1-2 6 1 5 1 3h2l1 5-3 6-1 7 3 4v5l-12 3-2 4-4 4-5 9-5 2h-2v-72l-1-56-3-9-6-9-8-5-4-1h-157l-9 2-8 7-3 4-1 4-1 37-26 26 4 9 7 8 14 14 1 2 1 32 4 10 5 6 10 3 2 3 28 1h19l15 2 7-1 23 1 2 1v2l3 1h-2v2h-2v2l-33 3-11-1v-2l-8 1h-12l-2 1-14 1-11 1-6 2-6-1-6 2-1 6-4 1-2 4-3 3h-4l-1 2h-3v2l-4 1-1 4-5 1-4 5-2-1-1 3h-2v6h-3l1 3v9l-1 7-1 1v6l-2 3h-2l-3-7 1-4h-2l-1-18-1-387-2-10-6-9-7-4h-335l-14 2-6 5-2 8-1 166-1 32-2-3v-4h-2l1-5 1-1-3-2-1-6 3-3v-15l1-1v-9l-3-11h-3l-1 2-1-4 1-2 1-1-1-22-3-12-4-4h-4l-4 5-7 1-1 3-3 8-5 5-1-19-1-5-3-3-3-6-8-7-9-4h-152l-9 2-9 6-4 5-2 13-2 3h-2v34l-2 61-2 2-2-1v-3h-2v-5l-3-1 1-2-5 1-3 9-3 3v-2l-7 2-1 4-3 2h-3l-1 3h-2v2h-2v4l-4 3h-6l-8 3h-3l-1 2-2-1-1 2h-3v2l-7 2-2 2-10 1v2l-4 2-5 1-4 2 2 2-8 3-5-2 2 3-5-1-1 3-5 1v2l-5 3v-6l-7 3-7 1v2l-5 3h-2l-2 4-5 1v2h-7l-4 1-3-1-1 7-4 1 3 2 2-2 3 1 6-3 3 1v2l4-1-1 5h-2l-1 5h3v-2h2l1-4 5-1h4v-3l5-1 3-4h7l-3-4 6-2 5-1 2-2 5-3 11 1 3 2-1 4-5 2-3 2h-2l1 3-1 4 6 2v-3h3l2 2 8 3h3v-6l-3-1 2-4 4 1-1-7h5l2-3h3v3h2l-1 5h3v-6l5-1 4 3 3 1 1-3 6-1v5l4-1v-3l-3-1 2-4h2l1 4h6l4 2v-2h2l-1-3 2-4 4 1 4-2 1-2 10-2 3-3-4-2v-4l5-3 2-1-1-3 10-1 2 18 2 1-1 4 2 4-1 3 2 4h3 2v2l2 1h-2v2l-10-2v2l-7 1v5l-2 1v-3l-8-2-2 3h-8v2l-5 3-4 6-6 4-4 9-3 1-9 2-4 5h-7l-1 2h-8l-1 3-4-2v2l-10-1v2h-2l-1 5h-2l-1-2h-4l-3 6h-6l-4 1-1 3-3 1-1 2h-5l-5-1h-9l-6 3-4-1-3 3-1 2-3 1-1 2h-2v2h-2v-2h-2v2h-2l-1 4-1 2h-5l1 3h-5l1 5-3-4-3-5v-2h-2v-2l-4-1-2-8-2-1v-2l-4-4-1-5-4-3-2-7-1-2-4-2-4-8v-2l-4-2v-2l-3 1-9-5-1-2-4-2v-3h-9l-3-2h3l-6-3-1-2v4l-3-1-6-12-6-8-21-42-6-16-5-11-3-9-5-12-3-12-5-15-1-12-3-7-1-13-3-6-1-34h-2l-1-2v-36l3-4 1-31 3-5 1-15 3-6 2-12 9-26 5-11 3-9 9-17 3-6 6-9 7-10 4-7z" fill="#F8171D"/>
<path transform="translate(905,140)" d="m0 0h335l7 4 6 8 1 6 1 54v501l-1 160-4 9-5 6-3 2-5 1h-337l-8-3-6-7-2-7v-254l-1-12-1-278v-174l2-8 7-6z" fill="#212C3D"/>
<path transform="translate(664,228)" d="m0 0h152l12 6 7 7 2 7 3 1 1 11 1 12 4-5 2-10 5-1 5-2 2-4 2-2v2l4 1 3 1 2 5 2 10 1 23-2 2v3l4-1 3 6 1 9v6h-2l1 5v10l-3 4 2 6h2v2h-2l-1 5h2l1 4 1-31v-21h1l1 8v44l1 257v56l-1 44h-2v3l-3 1-3 6-5 4h-2v2l-4-1v3l-6-2-1 2h-3v2l-5 1v6l-4 1-1-4-2 1h-6l-1 3-8 2-1 2-1-2h-2v2l-3 2-10 1-6-1h-7l-6 6-6 1-1 2-5 1-2 5-7 3-3 1v-2h-3l-1 3-5 1-2 5-6 1v3l-5 2-5-1-1 2h-2l-1 4h-2v2l-6-1-3 4h-6v-2h-5v4l-5 1v2l-9 2-1 4-4 2-3-2-3 1 1 6-6-1v2l-5 3h-6l-2 3-3 1-7 2h-4l-11 2h-4v2h-2l-1 3h-2l-1 2-3 2-2 1v-2l-5 4-5-1-7 4-7 2-2 1v-2l-5 1-2 3h-2v-2l-9 5-2 2-8 1-1-3-8 3-3 1-2 4h-5l-3-1-7 2-5 3h-2l-1 2-9 2-5 4-9 3-10 5-5 2v-3l-2 1v2h-2l-1-2-6 2-5 2v2l-5 2 1 5-4 1-1 2-9 2-4 2-3 3-7 3 3 5h-11l-4 2v2l-4 3-4 1 7 2-1 3-5 1 1 4 1 5-9 1-1 3-6 2 3 3h-2v2l-6 4h-2v3h-2l-1 4-8 3-1 3h-2v2h-3v2l-5 2v2l-6 3h-2v2h-3v2l-7 2-1 2-3-1v5l-3 2-6 1-11 5-9 3h-2v2l-9 6h-2l1 5-2 2-11 1v2l-5 1v2l-4 3-7 2-5 3-6 1-3 4h-8l-7 5-5 1v2l-9 2v2l-9 3-5 1v2l-4-1-2 4-3 1-2-1v2l-4 1-5-1-4 3h-4v2l-8 2-1 5-4-1-4 2-2-1-3 3-1 3-5-1 1 3-17 8-9 5-5 2-8 4-3 2h-3v2l-11 6-11 8-10 6-6 5h-2v2h-2v2l-5 1-9 7-1 3h-2l-2 5-8 6-2 4-4 2v3h-2l-1 4h-2l-3 9h-2l-2 4-2 5-5 2-3 1v-5h3l-1-4 1-12 9-17 6-9 6-8h2l5-10 16-17 5-5h2l2-4 9-7 16-12 15-10 11-7 38-19 9-3 24-12 9-6 11-6 9-6 10-7 18-12 10-8 8-6 10-9 8-5 9-9h2l1-3 8-7 6-5 6-4 13-13h2l2-4h2l2-4h2l5-10 11-11 7-8 8-8 3-6 8-9h2l2-4 5-8 7-8 6-10 7-10 6-10 5-9 6-9 11-22 4-9 3-9 5-11 8-24 2-11 2-5 1-13 3-8v-49l-3-5-1-13-10-29-7-14-6-8-3-5-5-7-3-5-9-10-7-7-3-6-11-12-7-8-3-5-9-11-3-5-16-24-3-4v-6-3l2 2v3l6 1 1 3 8 1 1 3 4 2v2l6 2 4 2h2l5 6 5 9 4 2 3 9 3 2v3l2 1-1 3h4l1 3v2l2 6v2l4 1v2h2l5 8v-2l4-1v-3l5 1 2-6h2v-2h2v2h2v-2h2l2-4 2 1 1-5 4-1 3 1 6-3h10l4 1 5 1 2-4h2l3-3 6-1 2 1 1-4 3-3 4 1 1 1 2-4h2v-2l3-1 7 2v-2l4 1 3-3 6 1 1-3h7l4-5 11-2 3-7 2-3 7-5 4-6 4-1v-2l8-1 2-3 6 2 3 3v-5l3-1h5v-2h6l4 2v-5h-2l-1 2-4-4-1-3 1-3-2-3 1-4-3-7v-9l-2-1v-2l-5 2-3-1 2 4-5 2-2 3v2l4 2-4 4-2 1h-8l-1 5-1-2h-2l-1 2-4-1-2 8h-3l-3-1h-6v-5l-3 2v2l2 1v3l-4 1v-5l-6 2-1 2-5-1-3-2h-3l-1 6h-3l1-5h-2v-3h-3l-2 4h-4v6l-5 1v2l2 1 1 6-2 2-3-1-7-3-2-1v-2h-3v3l-3 1-3-3v-7h2l1-2 7-3v-3l-9-2-5 1-6 4-5 1-4 2 1 3-7 1-5 5-3-1 2 4-4-1-1 2-3-1h-3l-1 4h-2v2h-3l-1-3h2v-2h2v-4h-3v-2l-6 1-5 2h-2-3l-3-2 6-1 1-7 10-1 4 1v-2l6-3 3-3 5-2v-2l9-3 5-2 1 3v3l4-2v-2l5-2 1-2h3v-3l6 2 5-3v-3l5-2h5l3-1-1-3 11-1 4-3h5v-2l10-4 8-3h6l4-2v-4h2v-2l3-3 6-2 1-4 4-2 4 1 3-8 2-5 3-1v2h2v2l2 1v5h2l2 2h1l2-61v-30l1-4h2l3-16 7-8 9-5z" fill="#E25154"/>
<path transform="translate(1590,37)" d="m0 0h4v3h2v2l4 1v364h-3l-1-2-4-2-2-3-8 1-2 4-4 1-1-3-6 1-1 6-6 1-5-1v2l-5 1-5-1-3 1h-3l-1 2h-5l-2 4-4-1-2 6 1 5 1 3h2l1 5-3 6-1 7 3 4v5l-12 3-2 4-4 4-5 9-5 2h-2v-72l-1-56-3-9-6-9-8-5-4-1h-157l-9 2-8 7-3 4-1 4-1 37-26 26 4 9 7 8 14 14 1 2 1 32 4 10 5 6 10 3 2 3 28 1h19l15 2 7-1 23 1 2 1v2l3 1h-2v2h-2v2l-33 3-11-1v-2l-8 1h-12l-2 1-14 1-11 1-6 2-6-1-6 2-1 6-4 1-2 4-3 3h-4l-1 2h-3v2l-4 1-1 4-5 1-4 5-2-1-1 3h-2v6h-3l1 3v9l-1 7-1 1v6l-2 3h-2l-3-7 1-4h-2l-1-18v-373h1v34l3-2 4-24 1-8 2-2v-6h2l2-6 3-1 4 1 5-1 2-4 4-3 9-1 4-3h2v-2l6-2 3-3 4-1v-2l4-1 4-2 1-4 6-1 6-2h4l2-4 7 1-1-3 2-1v2l4 1h3l5-5 3 1v-2l3-1h7v-4l14-4h3v-2h2v-3h3l1-3 5 1h2l1-2h6l6-4 4-5 8-1 4 1 3 1v-3h5l1-2 2 1 1-2 1 3h2l2-4 5 1 5-4 2 1 3-3h7l5-3h4l5-1 1-4h2v2h6l2-1v2l3-3 1-6h7l1-4 6 1 4-3 6-1v-3l4-2v-4h12l-1-3 1-2 9 3 5 1v-2l5-2 2-1 2-2h5v-2l5-2 7-1 3-3z" fill="#E25154"/>
<path transform="translate(1237,171)" d="m0 0 5 5 3 8v49l-18 22-11 13-11 14-12 14-8 10-10 12-9 11-13 16-9 11-11 13-9 11-11 13-16 20-4 4-1 3h31l9-2 11-14 11-13 8-10 13-16 9-11 14-17 13-16 9-11 14-17 9-11 2 3v120l-3 5-11 13-4 6h-2l5 13v20l-3 8-6 7-7 4-30 1h-250l-13-2-8-5-5-8-2-7v-17l4-10 10-10 6-2 14-1h87l7-3 11-14 14-17 8-10 2-2-9-2-8-2v-2l-9-2-14-8-6-4-8-8-7-10-6-13-4-18v-15l3-14 7-16 10-13 13-11 12-6 13-4 5-1h20l16 4 14 7 11 8 9 10 7 12 5 13v2l8-7 11-13 11-14 12-14 13-16 11-13 8-10 9-10 7-9z" fill="#606A77"/>
<path transform="translate(658,496)" d="m0 0h162l11 6 4 5 3 9 1 1 1 32 7 8 15 15 2 4-1 7-22 22-1 3-1 32-5 12-7 7-11 2-4 6-4-1v-3h-17v4l-3-1v-3h-123l-15-4-5-5-4-7-4-17v-109l2-3 2-9 8-9 4-3z" fill="#FDFDFD"/>
<path transform="translate(664,228)" d="m0 0h152l12 6 7 7 4 9 1 34h2l7 8 10 10 5 9-2 5-6 9-11 12-4 3-1 4-1 29-4 9-5 7-6 5-2 1-12 1h-147l-7-2-9-5-6-7-4-14v-110l2-3 2-13 7-8 9-5z" fill="#FDFDFD"/>
<path transform="translate(1322,589)" d="m0 0h154l11 4 5 4 6 8 2 6v120l-3 10-5 8-5 4-4 2-8 1h-157l-8-4-8-9-2-5-1-36-4-5-4-3v-2l-4-2-4-4v-2l-4-2-5-7 1-5 4-7 6-7v-11l3 1v7l7-6 3-3 1-3 1-35 7-9 7-5z" fill="#FDFDFD"/>
<path transform="translate(1322,328)" d="m0 0h157l7 3 6 4 6 9 2 8v119l-3 10-7 8-10 5-4 1h-155l-3-2-8-2-6-7-4-10-1-32-7-8-14-14-5-10 4-6 8-7 14-14 1-37 3-7 8-8 4-2z" fill="#FDFDFD"/>
<path transform="translate(926,754)" d="m0 0h284l9 3 6 5 4 8 1 4v20l-4 10-5 6-11 4h-284l-9-3-5-4-5-9-2-10 1-15 4-9 8-7z" fill="#FDFDFD"/>
<path transform="translate(930,422)" d="m0 0h275l11 2 6 4 5 5 3 9v20l-3 8-6 7-7 4-30 1h-250l-13-2-8-5-5-8-2-7v-17l4-10 5-5 6-4z" fill="#FDFDFD"/>
<path transform="translate(927,506)" d="m0 0h284l8 3 6 5 5 10 1 8-1 13-4 10-8 7-5 2-6 1h-279l-10-3-6-5-5-10-1-5v-14l3-11 6-7 7-3z" fill="#FDFDFD"/>
<path transform="translate(925,670)" d="m0 0h267l22 1 10 6 5 10 1 3v18l-3 9-7 8-5 3-4 1h-286l-10-4-6-7-3-8v-20l4-10h2l2-4h2v-2z" fill="#FDFDFD"/>
<path transform="translate(925,589)" d="m0 0h52l235 1 10 5 6 8 2 6v20l-4 10-8 7-5 2-7 1h-274l-12-2-4-2v-2l-4-2-4-6-2-7v-19l5-10 5-5 3 1 10 18 14 24 1 5h3l2-5 15-27 10-16 1-2h-22l-6 11-4-2-4-9h-12l-3-2z" fill="#FDFDFD"/>
<path transform="translate(1061,225)" d="m0 0h20l16 4 14 7 11 8 9 10 7 12 5 13 3 15v9l-4 18-8 17-7 9-11 11-7 3-14 7-12 3h-22l-15-4-16-8-8-6-7-7-7-10-6-13-4-18v-15l3-14 7-16 10-13 13-11 12-6 13-4z" fill="#4596BF"/>
<path transform="translate(1367,601)" d="m0 0 7 1 19 11 5 4 1 4v19l-1 35 14-7 9-6v-29l8-6 19-11 7 1 17 10 8 6 1 6v17l-2 10-21 12-5 3v29l-4 4-11 7-11 6-24 13-5 3-6-1-16-9-34-20-2-2-1-7v-80l1-7 15-10z" fill="#DE5C5E"/>
<path transform="translate(1430,356)" d="m0 0h8l5 4 4 6 2 8-1 14-1 8 9 2 11 6 5 5 3 4 1 8-6 8-10 7-12 5 1 10v14l-3 8-7 6-2 1h-7l-14-7-9-7-4 1-8 7-12 6h-8l-6-4-4-5-2-7v-13l1-9-17-9-8-7-3-5 1-9 7-8 10-6 8-3h3l-2-13v-12l4-9 6-4h11l12 6 9 8 4-2 8-7 10-5z" fill="#1FC4D0"/>
<path transform="translate(1243,282)" d="m0 0 2 3v120l-3 5-11 13-4 6h-2l-1 2-6-5-5-2-8-1h-103l-72-1v-1l55-1 1-2h2l1 2h34l9-2 11-14 11-13 8-10 13-16 9-11 14-17 13-16 9-11 14-17z" fill="#606A77"/>
<path transform="translate(914,559)" d="m0 0 9 4 5 1h285v1l-5 1-97 1-2 5-11 13-1 3h110v2h-282l3 1h11l6 11 2 1 2-5 4-7h23l-5 10-8 13-13 23-3 5h-3l-6-12-14-24-6-11-4 2-4 5-3 7v19l4 12-2 1-3 5-9 10-3 4h-2l-1-6v-59l2-7 8-11 11-12 2-1z" fill="#616B78"/>
<path transform="translate(673,524)" d="m0 0h53l15 25v2h2l2-5 10-18 3-4h53l-1 5-12 19-15 26-13 22-15 26-12 20-3-1-10-18-16-27-15-26-13-22-12-20z" fill="#4498BF"/>
<path transform="translate(1063,252)" d="m0 0h16l12 6 8 9 3 10v7l-3 10-6 9-5 5 11 7 7 7 6 10 4 12 1 11-9 7-13 6-12 3h-22l-15-4-16-8-3-3v-11l4-12 6-11 7-7 10-6h2l-7-8-4-5-3-7v-14l4-10 6-7 8-5z" fill="#FDFDFD"/>
<path transform="translate(1040,233)" d="m0 0 10 1 6 3h2v2l17 1 11 4 8 5v2l4 2 1 3h2l-2 4h-5v-2l-5-2-7-2-3-1h-16l-8 4-6 5-5 10-1 3v14l5 10 8 8v2l-9 5-9 8-8 16-2 7-1 11-4-2-8-8-7-10-6-13-4-18v-15l3-14 7-16 10-13 9-8 8-3z" fill="#20C2CF"/>
<path transform="translate(905,691)" d="m0 0h1l1 19 4 9 4 5 10 4h290l-3 2-10 1h-226l-2 5-11 13-1 3h209l40 1 3 2h-288l-10 4-7 8-2 6-1 15 2 10 5 9 3 3-4 1-12 14-6 8h-2l-1-7v-110l2-10 5-5 4-5h2z" fill="#636C79"/>
<path transform="translate(914,559)" d="m0 0 9 4 5 1h285v1l-5 1-97 1-2 5-11 13-1 3h110v2h-229v-1l13-1 12-13 5-8h-51l-2 3-1 8-8 5-10 1-2 1-15 2-8-2-1-4h-6l-2-2 6-10 6-5z" fill="#5F6E7B"/>
<path transform="translate(1448,621)" d="m0 0h6l8 5v-3l5 1 12 8 2 7v17l-2 10-21 12-5 3-2 30-3-2-8 5-28 16-10 6h-3l-1-2v-21l3-4 12-6 27-16 6-2-1-4 4-3-1-3-6-2-15-9-2-3v-22l4-1 14 8v-3l-10-6-4-2 1-4z" fill="#E15356"/>
<path transform="translate(917,478)" d="m0 0 8 2 9 1h278l-4 3h-26l-5 5-10 12v2l40 1v2l-283 1 1-2 37-1 2-4 3-3 5-3 2-2 5-1h25l6 2h5l-1 3h-3l-1 3-6-1-9 3h-13l-5 1 2 1h84l2-5 10-12 1-3h-113l-25 1-15-2-6-3z" fill="#616A77"/>
<path transform="translate(927,648)" d="m0 0h286v1l-5 1-165 1-8 11-3 3-1 3 178 1 5 1v1h-289l-5 1 5-4 11-13 2-4-11-2z" fill="#6C7683"/>
<path transform="translate(1346,622)" d="m0 0 15 8 6 5 1 59 5 5 19 11 2 2 1 21-1 3-6-1-13-8-21-12-9-6v-85z" fill="#FDFDFD"/>
<path transform="translate(702,524)" d="m0 0h24l15 25v2h2l2-5 10-18 3-4h26l-2 1-2 6-8 14-16 27-12 20h-4l-8-13-14-24-7-11-7-14-3-5z" fill="#616A77"/>
<path transform="translate(930,422)" d="m0 0 92 1v1l-80 1 6 7 1 6h4l2-4 7-6h6l6 4 2 4v11l-3 5-3 1-3 9-8 9-8 4-5 1h-7l-10-5-4-5-1-2v-35l6-5z" fill="#EDEDEC"/>
<path transform="translate(1493,24)" d="m0 0 1 2-5 1v2l6-1 1 3-5 2h-4l-4 3h-2l-1 5-2-1v-2l-6 1 1 1-1 2-5 1-3-1v2h-2l-2 2v-2l-4 1-3-2-1 2-5 1-4-1-1 4h3l2 1v2l-6-1-1-1-2 3-8 3-1-1h-2v2l-5 1-2-1-3 1-3-1v-2l-2-1 1 3-5 1-4-2v6l4 1-1 5h-2l-3-3-4 2-3 1v-2l-4 1-2 7-3-1-4-1-1 5h-2v3l-3 1v-2h-3l-1-2-1 3h-5l-1-2h-5l-4-1-2 6h-2v2l-3 2-7 1v4l-4 1v-3l-3-1v-4l-2-1-1 2-1-4 12-2 4-3h4l3-1v-2l4-1 4 2 1-5 6-1h5l3-4 8-4 5 2 1-5 6-3 4-1 3-2h4l-1-3h-2v-5h3l2-6 11-2 1 1 2-2 3-1 3 1 1-2 11-1 1-2h11l6-2 10-1 8-2z" fill="#E34F52"/>
<path transform="translate(1106,268)" d="m0 0h2l2 7 3 9-1 2 5 2 1 3-1 2 5 2 1 3 4 2 4 6 2 1 1-4h2l1-5 2-1 4 4v9l-2 8-5 13-6 10-4 5-3 5-7 7-2-1 2-2-1-11-6-16-7-9-9-7-6-4 5-5 6-9 2-5 3 1 1-2h2z" fill="#20C2CF"/>
<path transform="translate(1220,650)" d="m0 0 4 1 2-1 3 3-1 5-2 2-2 5-16 1v3h-174l-3-1 1-4 6-7 3-3h12l7 1 21 1 7 2 5-1 3 1 1 3-2 1-3-1-3 1-1 2-2-1h-6v2h-2v2h69l20-1-10-1-1-1-37-3-1-2 12-2 38-2h20l25-2z" fill="#233445"/>
<path transform="translate(715,247)" d="m0 0 1 2-13 28-11 23-9 20-6 12-2 7h-3l-3-50v-21l5-4 29-13z" fill="#D08080"/>
<path transform="translate(752,247)" d="m0 0 13 4 25 11 9 5v13l-2 44-1 14-3 1-5-13-16-33-6-13-12-27z" fill="#666B78"/>
<path transform="translate(1394,395)" d="m0 0h24l5 6 8 15-1 6-10 16-4 3-23-1-6-9-6-10v-6l9-16z" fill="#FCFCFC"/>
<path transform="translate(922,728)" d="m0 0h293l-3 2-10 1h-226l-2 5-8 9-4 2h-8l-5 3h-16l-5 1-15-1-7-1-5-4v-11l3-1 1-3 8 2 2-1 4 1 4-2z" fill="#667C89"/>
<path transform="translate(709,347)" d="m0 0h50l3 2 6 13-1 3-14 8-12 7-8 3-19-10-13-8-1-4 7-13z" fill="#E15457"/>
<path transform="translate(963,482)" d="m0 0 113 1-1 4-11 14-3 3h-84v-3l6-1h12l9-3 6 1 1-2 3-1 1-2-7 1-6-2h-23l-6 2-3 3-2-1 8-10 1-3h-14z" fill="#616A77"/>
<path transform="translate(922,590)" d="m0 0 6 1h11l6 11 2 1 2-5 4-7h23l-5 10-8 13-13 23-3 5h-3l-6-12-14-24-6-11-2-2z" fill="#4398BD"/>
<path transform="translate(1393,622)" d="m0 0 2 1v54l-6 5-16 9h-1l-1-10v-40l1-7 10-6z" fill="#FCFCFC"/>
<path transform="translate(1421,667)" d="m0 0 7 1 13 8 5 2-5 5-22 12-13 8-8 4h-5l-9-6-8-4v-4l23-13z" fill="#FCFCFC"/>
<path transform="translate(1446,684)" d="m0 0h2v25l-8 5-28 16-10 6h-3l-1-2v-21l3-4 12-6 27-16z" fill="#FCFCFC"/>
<path transform="translate(1223,474)" d="m0 0v3l-2 3 5-1 3 1 3-1-2 11-3 7-10 5-3 1-1 3 2 1-8-1v-2h-40v-4l9-11 4-5 2-1h26l13-7z" fill="#253546"/>
<path transform="translate(934,764)" d="m0 0h10l4 4-1 8-4 6 4-1 4-11 2-5h7l7 3 6 5 2 5-7 9v12l-6 1-1-1v-8h-12l-1 8-5 1-1-1-2-10-6-3 2 9v4l-3-1-4-9-4-5-1-2 1-9 4-6z" fill="#429CC1"/>
<path transform="translate(1342,617)" d="m0 0h2l1 12 1 80 41 24 7 3v-24l5-1v25l12-6 17-10 19-11 1-24h1l1 24 2-24h1v25l-4 4-11 7-11 6-24 13-5 3-6-1-16-9-34-20-2-2v-85l1-8z" fill="#DD6062"/>
<path transform="translate(934,672)" d="m0 0 5 1-2 1-2 17 5-3 8-9 4-1 4 6 5 6 3 1v-11l-4-5-2-2h5l4 5 2 9 7 5 3 6-2 4-5 4-3 1-2 13-2 2-8 1-10-8-5-5-4-6h3l3 2v2l7 2 5-4 4-4-1-9-7-7-6 1-5 6-2 9h-2l-1 6-1 7 1 3 7 1 3 1-2 2h-8l-3-2-2-11-4-2-3-3-3-2v-6l5-6 6-2v-13z" fill="#1FC4D0"/>
<path transform="translate(926,482)" d="m0 0 20 1h31l-1 4-8 10-6 7-8 1h-26l4-2v-4h-15l-4-2-1-3-5-4v-2l6-1 9-2z" fill="#233445"/>
<path transform="translate(1329,84)" d="m0 0h2v9l-5-1-2-1-2 4-4 1-1-2-3 1-1-2-3 3h-3l-5-1-3 5h-3v-2l-4 2-3 3-3-1-1 8h-2l-3-3-2 1-2-1-1 4-4 2-1 3h2v2l-5-1-3-3-3 3 3 5 3 1-1 4-3 1-6 1h-1-2v2l-6-1-1 2-5-2-6-3-6-1-4-5-3 1v-5h7l4-1v-2l10-2 6-1 6-2 3 1v-3l5-1h3v-2l3-2 2-3 7-2 2 5 1-2 3-1-3-1h3l1-3h3l5-1v-1h5v-2l5-1 1-2 3 2v1h2l1-3 4-1 4 1 5-2z" fill="#E34F52"/>
<path transform="translate(1253,158)" d="m0 0h1l1 54v225l-1 169h-1l-1-9v-150l-2-16-1-9v-22h2l-1-91 1-3v-146z" fill="#243546"/>
<path transform="translate(914,559)" d="m0 0 9 4 5 1 76 1v1l-47 1-2 3-1 8-8 5-10 1-2 1-15 2-8-2-1-4h-6l-2-2 6-10 6-5z" fill="#697280"/>
<path transform="translate(1155,392)" d="m0 0 1 4-2 2-3 7v4l8-2 2 2 7 1-1 4 17 3 2 1h16l5-1 5 4v2h-110l-72-1v-1l55-1 1-2h2l1 2h34l9-2 11-14 7-8z" fill="#687280"/>
<path transform="translate(970,566)" d="m0 0h39l-3 6-9 10-5 6h-38l4-7 4-5h2l2-4z" fill="#233445"/>
<path transform="translate(752,175)" d="m0 0h18l6 2 1 1v19l1 7h-29l-2-2-1-9 1-15 1-2z" fill="#D38283"/>
<path transform="translate(1009,568)" d="m0 0 5 1 7 2h5v2l6 2 2 1-1 3-5 2-9 1-12 3-6 1v1l206 1v2h-229v-1l13-1 12-13z" fill="#538794"/>
<path transform="translate(1038,483)" d="m0 0h38l-1 4-11 14-3 3h-38l2-5 6-7z" fill="#233445"/>
<path transform="translate(979,491)" d="m0 0h25l6 2h5l-1 3h-3l-1 3-6-1-9 3h-13l-5 1 2 1 44 1 184 1v1l-283 1 1-2 37-1 2-4 3-3 5-3 2-2z" fill="#508F9C"/>
<path transform="translate(733,285)" d="m0 0 3 1 14 34 1 5h-33l-1-4 5-11 9-22z" fill="#E05759"/>
<path transform="translate(1364,400)" d="m0 0 4 2 6 14-1 7-6 12-7-1-10-5-7-6-2-4 1-4 2-4 15-9z" fill="#FDFDFD"/>
<path transform="translate(1437,443)" d="m0 0 4 1 2 6v16l-4 6-2 2h-8l-11-6-7-6 1-5 9-11 5-2z" fill="#FDFDFD"/>
<path transform="translate(1433,361)" d="m0 0 7 3 3 7v15l-2 6-4 1-10-1-6-2-10-12 1-5 8-6 10-5z" fill="#FDFDFD"/>
<path transform="translate(1371,444)" d="m0 0h9l9 1 7 6 5 8-2 4-8 6-8 5h-9l-4-5-1-3v-19z" fill="#FDFDFD"/>
<path transform="translate(1374,362)" d="m0 0h8l12 6 7 6-1 5-9 11-2 1-9 1h-9l-2-7v-16l4-6z" fill="#FDFDFD"/>
<path transform="translate(1446,400)" d="m0 0 10 4 11 7 3 4v5l-5 6-15 9-5-1-7-13v-7l7-13z" fill="#FDFDFD"/>
<path transform="translate(979,736)" d="m0 0 12 1 6 2 14 2h3l1 3-13 2-10 2-3 2 26 1 109 1v1h-159l-3-1 1-4 9-11z" fill="#233445"/>
<path transform="translate(820,440)" d="m0 0 3 1v26h-26v-26h13z" fill="#CD8283"/>
<path transform="translate(909,640)" d="m0 0 4 1 3 2v2l11 3 12 2-3 6-12 14-2-1v-2h-13l-5-5v-2h-2l-3-7 7-8z" fill="#253647"/>
<path transform="translate(1448,621)" d="m0 0h6l18 11-2 4-19 10-6-2-12-7-4-2 1-4z" fill="#FBFBFB"/>
<path transform="translate(576,296)" d="m0 0 9 3 5 5 2 3v8l-5 6-3 3-4 1h-7l-9-9-2-6 1-3h2l2-4 1-3 7-3z" fill="#DB8B8C"/>
<path transform="translate(1426,638)" d="m0 0 5 1 16 10 1 1v25l-6-2-15-9-2-3v-22z" fill="#FCFCFC"/>
<path transform="translate(1472,638)" d="m0 0h3l1 6v14l-2 5-10 7-9 5-3-1v-23l5-5z" fill="#FCFCFC"/>
<path transform="translate(1367,606)" d="m0 0h6l16 10 2 3-21 12-5-2-12-7-5-2 1-4 14-8z" fill="#FBFBFB"/>
<path transform="translate(699,276)" d="m0 0h1v7l-12 26-11 23-2 7h-3v-31l4-4 4-3 2-6h2v-2h4l2-5 4-4v-4z" fill="#E15658"/>
<path transform="translate(1367,601)" d="m0 0 7 1 19 11 5 4 1 4v19l-1 18h-1l-1-22-1-1-1-12h-2v-2h2l-1-2-2 2-3-1 2-2-9-6-8-5h-6l-17 9-2 4 2 1h-2l-1 2-2 6h-1v-12l-2 1-1 8v70l-1 8h-1v-80l1-7 15-10z" fill="#DC6062"/>
<path transform="translate(925,670)" d="m0 0h124v1l-85 1-4 2 5 6v8l-1 3-4-1-7-8-1-3-4 1-7 8-3 3h-3v-11l2-7h-4v-2h-8z" fill="#FCFCFC"/>
<path transform="translate(928,591)" d="m0 0h11l6 11 2 1 2-5 4-7 10 1-1 5-6 11-6 9-3 5-4-2-8-14-6-11z" fill="#5D6E7B"/>
<path transform="translate(1050,399)" d="m0 0v3l-1 7 1 5-5 3-3-2-1 4h10l-3-3 9-2 2 5 26 1v1l-55 1-1 1h-99l-9 2-4 1 3-3 6-2 14-1h87l7-3 11-14z" fill="#68707E"/>
<path transform="translate(1405,405)" d="m0 0 6 1 5 4 2 3v9l-5 6-3 2h-7l-6-3-3-5v-8l3-5 4-3z" fill="#1FC4D0"/>
<path transform="translate(917,478)" d="m0 0 8 2 9 1h222l24 1-4 2h-73l-140-1-25 1-15-2-6-3z" fill="#7A7681"/>
<path transform="translate(1221,568)" d="m0 0h6l2 2-2 4-1 7-7 1h-11l-5 1-9-1-16-1-3-1-1-3 5-2 15-1 10-1 11-3z" fill="#243546"/>
<path transform="translate(948,685)" d="m0 0 5 1 7 7 1 9-4 2-2 4-5 3-6-3v-2l-6-2-1-2h2v-7l4-6z" fill="#FCFCFC"/>
<path transform="translate(1448,616)" d="m0 0 7 1 9 5-2 1 1 4-9-5h-6l-18 10v3l14 7 1 2-1 1v3l-9-6-6-3h-3v24h-2v-13h-2v9h-1v-26l8-6z" fill="#E0575A"/>
<path transform="translate(954,416)" d="m0 0h57l10 2 10 1-4 2h-99l2-1v-3l5 1h11l5 1v-2z" fill="#243546"/>
<path transform="translate(1342,617)" d="m0 0h2v95l-4-1v-85l1-8z" fill="#F71A20"/>
<path transform="translate(1009,650)" d="m0 0h34l-7 11-4 4-1 3 3 1h-10v-4l7-2-1-4h-5l-4-1-9-2-3-2z" fill="#616A77"/>
<path transform="translate(574,301)" d="m0 0h9l4 5-1 9-4 4-9 1-5-3v-5l2-2h-2l1-5 2-3z" fill="#F8171D"/>
<path transform="translate(1236,134)" d="m0 0 8 1 1 6-2 1-3-1-117-1v-1l17-1h58l23-1 7-2z" fill="#E35154"/>
<path transform="translate(1221,733)" d="m0 0 4 1 1 8-5 4h-26l-7-2 1-3 17-3 11-3h4z" fill="#243546"/>
<path transform="translate(1112,407)" d="m0 0 9 1 2 4-1 5 1 4-31-1 1-3v2h5l2-4 4-2v-2z" fill="#243546"/>
<path transform="translate(939,420)" d="m0 0h78l13 1-1 2h-99l-9 2-4 1 3-3 6-2z" fill="#847A83"/>
<path transform="translate(1122,573)" d="m0 0h13l1 2 4-1 3 1v5l-6-1-10 3-7 1-2 2h-4v-2l-5-2-1-2 5-5h7z" fill="#243546"/>
<path transform="translate(952,511)" d="m0 0h7l10 5 1 7-1 17-5-4-6-15z" fill="#6F7280"/>
<path transform="translate(1422,650)" d="m0 0h2v13l4 1 11 6 5 3 2 4h-5l-13-8-7-1-19 11-6 1 2-4 22-13 1-1z" fill="#E15356"/>
<path transform="translate(820,440)" d="m0 0 3 1v26h-26v-26h13zm-19 3-1 2v19l1 1h19v-20l-2-2z" fill="#82DDE4"/>
<path transform="translate(1093,481)" d="m0 0h63l24 1-4 2h-73l-22-1v-1z" fill="#748992"/>
<path transform="translate(933,511)" d="m0 0h5l-2 7-8 16-4 7h-1l-1-23 9-6z" fill="#D17F7F"/>
<path transform="translate(896,553)" d="m0 0 4 2 7 5 4-1 2-2 2 4-1 4-5 4-6 7h-1l-2-7-4-4-2-10z" fill="#243546"/>
<path transform="translate(936,547)" d="m0 0h21l1 5-8 6h-8l-8-6v-4z" fill="#E0575A"/>
<path transform="translate(964,730)" d="m0 0h14l-2 1-2 5-8 9-2-4-6-4-10-3-1-1-7-1v-1z" fill="#616A77"/>
<path transform="translate(958,591)" d="m0 0h15l-2 4-3 1v2h-2l-2 5-7 11-2 3-1 5h-2l-2 5h-2l-1 2v-6l4-9 6-9 5-9 1-4h-5z" fill="#25BCCD"/>
<path transform="translate(762,177)" d="m0 0h12l1 1v11l-2 13-2 1h-22l1-24 3-1v22l18-1v-12l-1-7-7-1z" fill="#1FC4D0"/>
<path transform="translate(925,589)" d="m0 0h52v2l-24 1-6 11-4-2-4-9h-12l-3-2z" fill="#F8F8F7"/>
<path transform="translate(925,670)" d="m0 0h124v1l-85 1-8 5h-3l2-5-9-1v6l-9-1v-3h-4v-2h-8z" fill="#EEEEED"/>
<path transform="translate(1086,418)" d="m0 0h2l1 2 105 1v1l-66 1h-26l-72-1v-1l55-1z" fill="#3EAAB6"/>
<path transform="translate(930,439)" d="m0 0h4l1 2 1 12-1 1v6l4 4 1 3-7 1-5-6v-14l1-8z" fill="#FEFEFE"/>
<path transform="translate(1261,583)" d="m0 0 2 4 1 1 1 15-1 6-2 2-2 7-3-2v-30l3-1z" fill="#E35154"/>
<path transform="translate(752,247)" d="m0 0 13 4 11 5-3 1-8-2-1 5h-2v4h2l1-2 2 7h-3l-2 2-8-18z" fill="#CA8081"/>
<path transform="translate(1038,483)" d="m0 0h38l-1 4-6 1h-9l-4-3-1 1-7 2-4 1h-9l1-4z" fill="#202C3D"/>
<path transform="translate(1028,496)" d="m0 0h4l4 4 11 1 9-2h7v4l-2 1h-38l2-5z" fill="#212E3F"/>
<path transform="translate(1473,630)" d="m0 0 5 1 2 2 1 6v17l-2 10-5 1v-2h2l-1-10 1-17-3-5z" fill="#F12C31"/>
<path transform="translate(797,273)" d="m0 0h1v26l-2 39-3 1-5-13 1-3v2l4-4 2-10z" fill="#5C90AF"/>
<path transform="translate(964,745)" d="m0 0v3l-2 4 3 1h-40v-2l7-1 3-1h14l5-3h9z" fill="#616A77"/>
<path transform="translate(1450,654)" d="m0 0h1l1 22h4v3l-3 2-2 30-2-2-1-24-3-2 2-4 2-1v-12z" fill="#F71A20"/>
<path transform="translate(1452,652)" d="m0 0h1v22l6-2 14-9 2-5h1v7h-2l1 3-13 8-6 2-5-2v-21z" fill="#DD5F61"/>
<path transform="translate(665,662)" d="m0 0h125l1 5-3-1v-3h-123z" fill="#EEEEED"/>
<path transform="translate(967,691)" d="m0 0 5 1 4 4-1 6-5 3-5-2-1-1v-9z" fill="#FBFBFB"/>
<path transform="translate(962,705)" d="m0 0 3 3v9l-4 3h-6l-3-3 1-4 5-4z" fill="#FCFCFC"/>
<path transform="translate(928,692)" d="m0 0 8 1v9l-3 2h-7l-2-2 1-7z" fill="#FCFCFB"/>
<path transform="translate(1395,635)" d="m0 0 2 1 1 22v14l-2 4-2-2v-21z" fill="#DF595C"/>
<path transform="translate(1397,672)" d="m0 0 1 3 2 1h-2v3l2 1-17 10-6 2-4-2 19-11 4-4z" fill="#DD5E60"/>
<path transform="translate(1398,711)" d="m0 0 1 2v23l2 1-7 2-2-3h2v-24z" fill="#D07F7F"/>
<path transform="translate(1433,426)" d="m0 0 4 2 2 4v5l-4 2h-6l-2-1 1-5z" fill="#FDFDFD"/>
<path transform="translate(1400,444)" d="m0 0 12 1-1 6-4 5-5-2-2-4z" fill="#FAFAFA"/>
<path transform="translate(1376,397)" d="m0 0h8l-1 6-4 8-3-1-3-7v-5z" fill="#FBFBFB"/>
<path transform="translate(1404,380)" d="m0 0 4 2 5 6v3h-11l-3-1 1-5z" fill="#FBFBFB"/>
<path transform="translate(1428,396)" d="m0 0h6l4 3-1 9-3 3-6-9z" fill="#FBFBFB"/>
<path transform="translate(820,440)" d="m0 0 3 1v26h-26l1-4 2 2 20-1 1-22z" fill="#FDFDFD"/>
<path transform="translate(1077,488)" d="m0 0 1 3 5 1 3 2 4-1-1 3-6 2-3-1-10 1 1-4 1-2h2v-2z" fill="#69717F"/>
<path transform="translate(952,450)" d="m0 0h6l1 4-4 3-9 4-5-1 2-5 7-1v-3z" fill="#FEFEFE"/>
<path transform="translate(945,525)" d="m0 0 3 1 4 10v2h-11l-1-3z" fill="#D07C7D"/>
<path transform="translate(775,177)" d="m0 0 2 1v19l1 7h-29v-1l24-1z" fill="#D9686A"/>
<path transform="translate(917,478)" d="m0 0 8 2 9 1h41v1l-29 2-17-1-9-2z" fill="#937880"/>
<path transform="translate(1376,427)" d="m0 0 4 1 5 10-1 1-11-1 1-8z" fill="#FCFCFC"/>
<path transform="translate(1054,414)" d="m0 0 4 1 1 4 26 1v1h-43l4-2h5l-3-3z" fill="#6A7280"/>
<path transform="translate(1396,620)" d="m0 0 3 1v19l-1 18h-1l-1-22-1-1-1-13h2z" fill="#D08181"/>
<path transform="translate(931,775)" d="m0 0h1l1 9 3 1-2 2 2 8v4l-3-1-4-9-2-3h2l-1-6h2z" fill="#61D0D8"/>
<path transform="translate(1462,623)" d="m0 0 5 1 8 5-2 1 4 8v7l-2-1v-6l-7-1 4-5-5-2-5-5z" fill="#E34F52"/>
<path transform="translate(576,296)" d="m0 0 9 3 2 5 2 3v7l-5 5-2-1 3-3 1-9-5-4h-9l-2-3 5-2z" fill="#DD6769"/>
<path transform="translate(922,590)" d="m0 0 5 1 1 5 3 4v2h-2v-2l-7-1-6-5 4-3z" fill="#22C0CE"/>
<path transform="translate(1180,484)" d="m0 0h21v4l-12-1-3 1h-7l-1 2 1-5z" fill="#202B3C"/>
<path transform="translate(75,1105)" d="m0 0 2 3-1 2h-2v2h-2v2h-2l-1 4h-2l-2 6-1 2h-2l-2 4-4 4 1-5 6-8 4-6 3-4h2l2-4z" fill="#D08080"/>
<path transform="translate(1059,483)" d="m0 0h17l-1 4-6 1h-9l-4-3h3z" fill="#202B3C"/>
<path transform="translate(1421,633)" d="m0 0h1v7l3-1 1 24h-2v-13h-2v9h-1z" fill="#D08282"/>
<path transform="translate(1442,643)" d="m0 0 9 2 2 1-1 9h-1l-1 11h-1l-1-13-4-7-2-1z" fill="#E54B4E"/>
<path transform="translate(1451,681)" d="m0 0h1v20l-1 10-2-2-1-24-2-2 4 1z" fill="#EB393E"/>
<path transform="translate(841,282)" d="m0 0 4 2 5 4 3-1 4 4v2h2l-1 2-3 2-14-14z" fill="#F9171D"/>
<path transform="translate(1056,499)" d="m0 0h7v4l-2 1h-13v-3z" fill="#202B3C"/>
<path transform="translate(927,648)" d="m0 0h13l2 3h-2l-2 5-8 10-2 3-3-1 11-13 2-4-11-2z" fill="#587582"/>
<path transform="translate(1214,480)" d="m0 0 5 1-2 4-5 2-7 1-3-1v-2l6-2z" fill="#243243"/>
<path transform="translate(568,300)" d="m0 0h5l-4 7 1 2v3l-2 3-3-1-1-7z" fill="#D77576"/>
<path transform="translate(1390,564)" d="m0 0 19 1 1 3h-19l-2-2z" fill="#1FC4D0"/>
<path transform="translate(948,694)" d="m0 0 5 1 1 1v6h-7l-2-5z" fill="#1FC4D0"/>
<path transform="translate(1184,481)" d="m0 0h28l-4 3-28-1z" fill="#90767E"/>
<path transform="translate(1323,268)" d="m0 0 1 4 2 7 6 3-3 2-5-2-4-5 1-8z" fill="#B2C5C9"/>
<path transform="translate(949,767)" d="m0 0h3l-2 9-3 6-7 1 5-5 3-10z" fill="#EEEEED"/>
<path transform="translate(563,307)" d="m0 0h1l2 7 4 4 3 2h-2v2h13v2l-4 1h-7l-9-9-2-6z" fill="#DF5A5C"/>
<path transform="translate(810,441)" d="m0 0h11l1 3-1 20h-1l-1-19-1-1-10-1z" fill="#1FC4D0"/>
<path transform="translate(835,158)" d="m0 0 5 2 2 2-1 3h-2-6l-1-5z" fill="#D8999B"/>
<path transform="translate(953,462)" d="m0 0 4 1-1 5-5 2h-5l2-1 2-4z" fill="#FEFEFE"/>
<path transform="translate(774,189)" d="m0 0h1v15h-26v-1l24-1z" fill="#E5B4B4"/>
<path transform="translate(1398,640)" d="m0 0h1l1 32h5l-4 3h-3z" fill="#EEEEED"/>
<path transform="translate(1136,332)" d="m0 0 4 2-2 6h-2v2l-6 1z" fill="#69717F"/>
<path transform="translate(1329,84)" d="m0 0h2v9l-5-1v-3l-3-2 4-2z" fill="#E35154"/>
<path transform="translate(989,581)" d="m0 0h5v5l-1 1h-8l1-4z" fill="#202B3C"/>
<path transform="translate(1393,622)" d="m0 0 2 1v30h-1l-1-28h-2v-2z" fill="#EEEEED"/>
<path transform="translate(1342,617)" d="m0 0h2v15l-2-4-2 4 1-14z" fill="#F9171D"/>
<path transform="translate(962,498)" d="m0 0 2 1-2 5h-11v-2l9-3z" fill="#202C3D"/>
<path transform="translate(1453,617)" d="m0 0 6 2 5 4h-2l1 4-9-5v-3z" fill="#DF5A5D"/>
<path transform="translate(1484,239)" d="m0 0 4 1v4l-7 1-2-3 1-2z" fill="#D4A6A6"/>
<path transform="translate(914,559)" d="m0 0 4 2-2 4-10 10v-3l6-7 2-1z" fill="#696E7A"/>
<path transform="translate(641,441)" d="m0 0h2v2h-2l-2 5 1 3-4-1-4-4v-2l6 1 1-3z" fill="#DDB9BA"/>
<path transform="translate(932,429)" d="m0 0h5v4l-7 4 1-7z" fill="#FEFEFE"/>
<path transform="translate(522,398)" d="m0 0m-5 1h5l-1 3-5 1v2l-5 3 1-6 5-1z" fill="#EE3136"/>
<path transform="translate(733,285)" d="m0 0 3 1 5 12-1 3-2-3-3-9h-3l-1 2 1-4z" fill="#D08282"/>
<path transform="translate(1471,636)" d="m0 0 1 3-7 4-2-1-1-3z" fill="#E34F52"/>
<path transform="translate(196,1019)" d="m0 0 3 1-6 3-12 4 1-3 9-4z" fill="#C67F81"/>
<path transform="translate(673,524)" d="m0 0h29v1l-26 1-2 2z" fill="#1FC4D0"/>
<path transform="translate(760,262)" d="m0 0 4 2 1-2 2 7h-3l-2 2-3-8z" fill="#CC8181"/>
<path transform="translate(913,593)" d="m0 0 3 2-6 7-2 2-2-2 4-6z" fill="#5C808E"/>
<path transform="translate(48,1147)" d="m0 0h1v14l-5 2 1-6z" fill="#C07D7F"/>
<path transform="translate(1473,633)" d="m0 0 4 5v7l-2-1v-6l-7-1z" fill="#DD5F61"/>
<path transform="translate(932,605)" d="m0 0 5 3 2 4v5l-4-3v-4h-2z" fill="#28B8CB"/>
<path transform="translate(952,511)" d="m0 0h7l4 2-1 2-7 1z" fill="#CC8181"/>
<path transform="translate(584,300)" d="m0 0 5 2 2 9-2 6-1-3v-7z" fill="#E9CAC9"/>
<path transform="translate(1037,661)" d="m0 0 1 2 2 1v3h-7l1-5z" fill="#202B3C"/>
<path transform="translate(1435,671)" d="m0 0 9 2 2 4h-5l-4-3v-2z" fill="#ED353A"/>
<path transform="translate(1060,483)" d="m0 0h16l-1 4-1-2h-13z" fill="#243546"/>
<path transform="translate(1053,370)" d="m0 0 14 2v1l-8 1-3 1-2-1z" fill="#243546"/>
<path transform="translate(568,302)" d="m0 0 1 2-1 2-1 9-3-3 1-7z" fill="#F4F9FA"/>
<path transform="translate(911,472)" d="m0 0 2 1v2l4 2 3 4-5-1-5-5z" fill="#4C4B58"/>
<path transform="translate(880,341)" d="m0 0h1v13l-2-3v-4h-2l1-5z" fill="#F8191E"/>
<path transform="translate(1285,645)" d="m0 0 3 1v9l-2 1-1-2z" fill="#F4F4F3"/>
<path transform="translate(943,435)" d="m0 0h2l1 5-2 3h-2l-1-5z" fill="#FEFEFE"/>
<path transform="translate(905,691)" d="m0 0h1v15l-2-3-1-3 1-8z" fill="#60929D"/>
<path transform="translate(932,789)" d="m0 0 3 3 1 7-3-1-1-2z" fill="#5293AA"/>
<path transform="translate(1207,484)" d="m0 0h6l-1 3-7 1-3-1v-2z" fill="#202B3C"/>
<path transform="translate(936,484)" d="m0 0h12v2l-5 1-8-1z" fill="#202B3C"/>
<path transform="translate(964,433)" d="m0 0h3l1 7-4-1-1-5z" fill="#FEFEFE"/>
</svg>
